<?xml version="1.0" encoding="utf-8"?>
<!-- Generator: Adobe Illustrator 15.1.0, SVG Export Plug-In . SVG Version: 6.00 Build 0)  -->
<!DOCTYPE svg PUBLIC "-//W3C//DTD SVG 1.1//EN" "http://www.w3.org/Graphics/SVG/1.1/DTD/svg11.dtd">
<svg version="1.1" id="Layer_1" xmlns="http://www.w3.org/2000/svg" xmlns:xlink="http://www.w3.org/1999/xlink" x="0px" y="0px"
	 width="272.035px" height="272.034px" viewBox="0 0 272.035 272.034" enable-background="new 0 0 272.035 272.034"
	 xml:space="preserve">
<g>
	<defs>
		<rect id="SVGID_1_" width="272.035" height="272.034"/>
	</defs>
	<clipPath id="SVGID_2_">
		<use xlink:href="#SVGID_1_"  overflow="visible"/>
	</clipPath>
	<path clip-path="url(#SVGID_2_)" fill="#FFFFFF" d="M35.742,57.218l-22,103l94.667,79.333l137-61.666c0,0-1.334-82-10.667-84.667
		s-72.333-71-72.333-71L35.742,57.218z"/>
	<path clip-path="url(#SVGID_2_)" fill="#ee2a7b" d="M263.409,86.631L185.403,8.625c-7.438-7.439-18.281-10.343-28.443-7.621
		L50.386,29.567c-10.16,2.723-18.096,10.658-20.82,20.82L1.004,156.96c-2.723,10.162,0.181,21.003,7.62,28.443l78.006,78.008
		c7.439,7.438,18.283,10.341,28.444,7.619l106.575-28.563c10.16-2.722,18.095-10.658,20.817-20.817l28.563-106.574
		C273.753,104.913,270.85,94.071,263.409,86.631 M134.123,175.988c-10.323,25.677-36.094,18.754-48.017-2.762
		c-10.057-18.147-12.81-25.191-22.109-24.604c-0.382,0.023-0.704,0.308-0.788,0.682l-5.251,23.546
		c-0.35,1.571-1.953,2.856-3.562,2.856h-3.618c-1.608,0-2.641-1.286-2.294-2.858l14.951-67.687c0.346-1.571,1.856-3.336,3.354-3.924
		l4.962-1.795c1.529-0.502,2.493,0.373,2.144,1.945l-8.616,38.635c0.127,0.004,0.255,0.01,0.387,0.016l-0.07-0.067
		c19.015-3.672,55.941-28.211,45.982-43.381c-9.931-15.127-54.917-4.326-77.914,18.713c-1.404,1.405-3.681,1.405-5.086,0
		c-1.404-1.404-1.404-3.679-0.003-5.084l-0.005-0.004c29.797-27.759,85.642-41.24,100.014-20.404
		c12.799,18.557-24.859,45.941-50.326,54.664c4.982,3.416,10.848,9.451,17.436,20.132c16.734,27.128,32.775,15.524,37.688,10.865
		C133.738,175.135,134.306,175.533,134.123,175.988 M226.961,159.354c-7.775,10.021-14.515,15.031-23.326,15.031
		c-6.273,0-10.269-2.642-11.986-7.924c-3.581,4.432-6.867,6.541-11.167,6.541c-6.394,0-10.195-4.318-10.195-11.229
		c0-7.259,2.419-16.414,7.084-27.993l-4.665-1.383c-8.327,21.316-16.603,39.57-27.127,39.57c-4.838,0-7.775-3.629-7.775-10.194
		c0-1.035,0-2.246,0.174-3.455c-5.875,10.713-12.786,16.067-19.007,16.067c-5.011,0-8.639-4.146-8.639-10.539
		c0-7.43,2.764-16.76,8.812-27.301c6.392-11.232,13.65-16.759,18.834-16.759c3.282,0,5.701,1.726,8.121,5.009
		c1.727-0.517,3.109-0.863,4.666-0.863c4.146,0,6.91,2.074,6.91,4.492c0,1.901-2.418,5.53-5.355,12.096
		c-5.012,11.23-6.913,18.66-6.913,21.08c0,1.556,0.347,2.246,1.556,2.246c4.544,0,15.21-21.719,19.696-37.496
		c-1.899-1.209-2.937-2.244-2.937-3.801c0-3.283,4.493-7.947,9.676-7.947c2.421,0,4.32,1.555,4.32,3.629
		c0,1.035-0.347,2.764-0.864,4.664l5.703,1.729c0.862-1.557,2.073-2.766,3.627-3.975c1.037-0.346,1.9-0.52,2.248-0.52
		c2.592,0,6.048,2.248,6.048,4.495c0,1.726-1.21,3.281-3.629,5.183c-7.432,12.442-10.888,23.153-10.888,31.274
		c0,2.938,1.21,4.666,2.42,4.666c2.225,0,5.081-2.377,8.306-7.188c0.207-7.752,3.35-19.459,8.705-29.91
		c3.788-7.395,11.42-14.383,18.315-12.359c6.897,2.023,8.827,9.837,5.239,19.482c-3.558,9.561-10.564,16.496-16.202,16.496
		c-1.676,0-3.352-0.649-5.028-2.266c-0.139,0.334-0.295,0.69-0.47,1.063c-0.635,2.668-0.894,5.239-0.894,7.942
		c0,6.394,1.727,9.851,5.182,9.851c5.53,0,15.378-7.604,22.463-20.908c1.901-3.629,2.592-5.701,3.801-5.701
		c0.863,0,2.593,1.207,2.593,3.281C234.392,147.258,232.319,152.442,226.961,159.354"/>
	<path clip-path="url(#SVGID_2_)" fill="#EE356E" d="M140.912,129.116c-3.455,0-8.638,4.664-13.994,14.688
		c-5.703,10.538-7.776,18.488-7.776,21.598c0,1.383,0.346,1.899,1.382,1.899c1.9,0,6.22-3.455,11.058-10.712
		c8.812-13.133,11.923-24.192,11.923-24.881C143.506,130.153,142.469,129.116,140.912,129.116"/>
	<path clip-path="url(#SVGID_2_)" fill="#EE356E" d="M207.608,146.912c2.895,0,6.188-6.104,7.598-12.451
		c0.44-1.992,0.697-4.006,0.697-5.863c0-1.385-1.036-2.592-2.074-2.592c-1.527,0-3.69,2.392-5.567,5.422
		c-2.157,3.482-3.935,7.806-3.935,10.3C204.327,145.013,205.708,146.912,207.608,146.912"/>
</g>
</svg>
